<svg width="16" height="16" viewBox="0 0 16 16" fill="none" xmlns="http://www.w3.org/2000/svg">
<g clip-path="url(#clip0_0_58)">
<path d="M8.1665 6.875C8.7876 6.875 9.2915 7.37891 9.2915 8C9.2915 8.62109 8.7876 9.125 8.1665 9.125C7.54541 9.125 7.0415 8.62109 7.0415 8C7.0415 7.37891 7.54541 6.875 8.1665 6.875ZM7.0415 4.4375C7.0415 5.05859 7.54541 5.5625 8.1665 5.5625C8.7876 5.5625 9.2915 5.05859 9.2915 4.4375C9.2915 3.81641 8.7876 3.3125 8.1665 3.3125C7.54541 3.3125 7.0415 3.81641 7.0415 4.4375ZM7.0415 11.5625C7.0415 12.1836 7.54541 12.6875 8.1665 12.6875C8.7876 12.6875 9.2915 12.1836 9.2915 11.5625C9.2915 10.9414 8.7876 10.4375 8.1665 10.4375C7.54541 10.4375 7.0415 10.9414 7.0415 11.5625Z" fill="white"/>
</g>
<defs>
<clipPath id="clip0_0_58">
<rect width="3" height="12" fill="white" transform="translate(6.6665 2)"/>
</clipPath>
</defs>
</svg>
