<svg width="25" height="25" viewBox="0 0 25 25" fill="none" xmlns="http://www.w3.org/2000/svg">
<path fill-rule="evenodd" clip-rule="evenodd" d="M11.4583 0.260376C5.84917 0.260376 1.30206 4.80748 1.30206 10.4166C1.30206 16.0258 5.84917 20.5729 11.4583 20.5729C17.0675 20.5729 21.6146 16.0258 21.6146 10.4166C21.6146 4.80748 17.0675 0.260376 11.4583 0.260376ZM2.86456 10.4166C2.86456 5.67043 6.71212 1.82288 11.4583 1.82288C16.2045 1.82288 20.0521 5.67043 20.0521 10.4166C20.0521 15.1628 16.2045 19.0104 11.4583 19.0104C6.71212 19.0104 2.86456 15.1628 2.86456 10.4166Z" fill="#737373"/>
<path d="M20.3441 18.1976C20.039 17.8925 19.5444 17.8925 19.2393 18.1976C18.9342 18.5027 18.9342 18.9974 19.2393 19.3025L23.4058 23.4691C23.7109 23.7742 24.2056 23.7742 24.5107 23.4691C24.8158 23.164 24.8158 22.6693 24.5107 22.3642L20.3441 18.1976Z" fill="#737373"/>
</svg>
