<svg width="25" height="25" viewBox="0 0 25 25" fill="none" xmlns="http://www.w3.org/2000/svg">
<path fill-rule="evenodd" clip-rule="evenodd" d="M11.4584 0.260376C5.84923 0.260376 1.30212 4.80748 1.30212 10.4166C1.30212 16.0258 5.84923 20.5729 11.4584 20.5729C17.0675 20.5729 21.6146 16.0258 21.6146 10.4166C21.6146 4.80748 17.0675 0.260376 11.4584 0.260376ZM2.86462 10.4166C2.86462 5.67043 6.71218 1.82288 11.4584 1.82288C16.2046 1.82288 20.0521 5.67043 20.0521 10.4166C20.0521 15.1628 16.2046 19.0104 11.4584 19.0104C6.71218 19.0104 2.86462 15.1628 2.86462 10.4166Z" fill="#737373"/>
<path d="M20.3442 18.1976C20.0391 17.8925 19.5445 17.8925 19.2394 18.1976C18.9343 18.5027 18.9342 18.9974 19.2393 19.3025L23.4059 23.4691C23.711 23.7742 24.2057 23.7742 24.5108 23.4691C24.8159 23.164 24.8159 22.6693 24.5108 22.3642L20.3442 18.1976Z" fill="#737373"/>
</svg>
