<svg width="17" height="17" viewBox="0 0 17 17" fill="none" xmlns="http://www.w3.org/2000/svg">
<path d="M6.90625 2.125C6.90625 1.8316 6.6684 1.59375 6.375 1.59375C6.0816 1.59375 5.84375 1.8316 5.84375 2.125V14.875C5.84375 15.1684 6.0816 15.4062 6.375 15.4062C6.6684 15.4062 6.90625 15.1684 6.90625 14.875L6.90625 2.125Z" fill="white"/>
<path d="M11.1563 2.125C11.1563 1.8316 10.9184 1.59375 10.625 1.59375C10.3316 1.59375 10.0938 1.8316 10.0938 2.125L10.0938 14.875C10.0938 15.1684 10.3316 15.4062 10.625 15.4062C10.9184 15.4062 11.1563 15.1684 11.1563 14.875V2.125Z" fill="white"/>
</svg>
