<svg width="25" height="25" viewBox="0 0 25 25" fill="none" xmlns="http://www.w3.org/2000/svg">
<path fill-rule="evenodd" clip-rule="evenodd" d="M11.4585 0.260376C5.84935 0.260376 1.30225 4.80748 1.30225 10.4166C1.30225 16.0258 5.84935 20.5729 11.4585 20.5729C17.0676 20.5729 21.6147 16.0258 21.6147 10.4166C21.6147 4.80748 17.0676 0.260376 11.4585 0.260376ZM2.86475 10.4166C2.86475 5.67043 6.7123 1.82288 11.4585 1.82288C16.2047 1.82288 20.0522 5.67043 20.0522 10.4166C20.0522 15.1628 16.2047 19.0104 11.4585 19.0104C6.7123 19.0104 2.86475 15.1628 2.86475 10.4166Z" fill="#737373"/>
<path d="M20.3443 18.1976C20.0392 17.8925 19.5446 17.8925 19.2395 18.1976C18.9344 18.5027 18.9344 18.9974 19.2395 19.3025L23.406 23.4691C23.7111 23.7742 24.2058 23.7742 24.5109 23.4691C24.816 23.164 24.816 22.6693 24.5109 22.3642L20.3443 18.1976Z" fill="#737373"/>
</svg>
