<svg width="9" height="8" viewBox="0 0 9 8" fill="none" xmlns="http://www.w3.org/2000/svg">
<path d="M7.52055 2.12645C8.02153 2.99417 8.27202 3.42804 8.29558 3.90249C8.2988 3.96746 8.2988 4.03256 8.29558 4.09754C8.27202 4.57199 8.02153 5.00585 7.52055 5.87358C7.01957 6.7413 6.76907 7.17517 6.36997 7.43279C6.31531 7.46807 6.25893 7.50062 6.20105 7.53032C5.77839 7.74714 5.2774 7.74714 4.27544 7.74714C3.27348 7.74714 2.77249 7.74714 2.34983 7.53032C2.29195 7.50062 2.23557 7.46807 2.18091 7.43279C1.7818 7.17517 1.53131 6.7413 1.03033 5.87358C0.529349 5.00585 0.278858 4.57199 0.255302 4.09754C0.252076 4.03256 0.252076 3.96746 0.255302 3.90249C0.278858 3.42804 0.529349 2.99417 1.03033 2.12645C1.53131 1.25872 1.7818 0.824858 2.18091 0.567233C2.23557 0.531951 2.29195 0.499402 2.34983 0.469708C2.77249 0.252883 3.27348 0.252883 4.27544 0.252883C5.2774 0.252883 5.77839 0.252883 6.20105 0.469708C6.25893 0.499403 6.31531 0.531951 6.36997 0.567233C6.76908 0.824858 7.01957 1.25872 7.52055 2.12645Z" stroke="#42C83C" stroke-width="0.502895"/>
<path d="M3.49506 3.64753C3.57493 3.45355 3.72898 3.2995 3.92296 3.21963L4.9759 2.78607C5.29921 2.65294 5.62251 2.97625 5.48939 3.29955L5.05582 4.35249C4.97595 4.54647 4.8219 4.70052 4.62792 4.7804L3.57498 5.21396C3.25167 5.34709 2.92837 5.02378 3.06149 4.70047L3.49506 3.64753Z" stroke="#42C83C" stroke-width="0.502895"/>
</svg>
