<svg width="25" height="25" viewBox="0 0 25 25" fill="none" xmlns="http://www.w3.org/2000/svg">
<path fill-rule="evenodd" clip-rule="evenodd" d="M11.4583 0.260376C5.84911 0.260376 1.302 4.80748 1.302 10.4166C1.302 16.0258 5.84911 20.5729 11.4583 20.5729C17.0674 20.5729 21.6145 16.0258 21.6145 10.4166C21.6145 4.80748 17.0674 0.260376 11.4583 0.260376ZM2.8645 10.4166C2.8645 5.67043 6.71206 1.82288 11.4583 1.82288C16.2044 1.82288 20.052 5.67043 20.052 10.4166C20.052 15.1628 16.2044 19.0104 11.4583 19.0104C6.71206 19.0104 2.8645 15.1628 2.8645 10.4166Z" fill="#737373"/>
<path d="M20.3441 18.1976C20.039 17.8925 19.5443 17.8925 19.2392 18.1976C18.9341 18.5027 18.9341 18.9974 19.2392 19.3025L23.4058 23.4691C23.7109 23.7742 24.2055 23.7742 24.5106 23.4691C24.8157 23.164 24.8157 22.6693 24.5106 22.3642L20.3441 18.1976Z" fill="#737373"/>
</svg>
