<svg width="28" height="28" viewBox="0 0 28 28" fill="none" xmlns="http://www.w3.org/2000/svg">
<path fill-rule="evenodd" clip-rule="evenodd" d="M13.9999 1.45837C10.9393 1.45837 8.45825 3.93946 8.45825 7.00004C8.45825 10.0606 10.9393 12.5417 13.9999 12.5417C17.0605 12.5417 19.5416 10.0606 19.5416 7.00004C19.5416 3.93946 17.0605 1.45837 13.9999 1.45837ZM10.2083 7.00004C10.2083 4.90596 11.9058 3.20837 13.9999 3.20837C16.094 3.20837 17.7916 4.90596 17.7916 7.00004C17.7916 9.09412 16.094 10.7917 13.9999 10.7917C11.9058 10.7917 10.2083 9.09412 10.2083 7.00004Z" fill="#42C83C"/>
<path fill-rule="evenodd" clip-rule="evenodd" d="M10.4999 14.2917C7.43934 14.2917 4.95825 16.7728 4.95825 19.8334C4.95825 22.894 7.43934 25.375 10.4999 25.375H17.4999C20.5605 25.375 23.0416 22.894 23.0416 19.8334C23.0416 16.7728 20.5605 14.2917 17.4999 14.2917H10.4999ZM6.70825 19.8334C6.70825 17.7393 8.40584 16.0417 10.4999 16.0417H17.4999C19.594 16.0417 21.2916 17.7393 21.2916 19.8334C21.2916 21.9275 19.594 23.625 17.4999 23.625H10.4999C8.40584 23.625 6.70825 21.9275 6.70825 19.8334Z" fill="#42C83C"/>
</svg>
