<svg width="28" height="28" viewBox="0 0 28 28" fill="none" xmlns="http://www.w3.org/2000/svg">
<path fill-rule="evenodd" clip-rule="evenodd" d="M14.0002 1.45837C10.9396 1.45837 8.4585 3.93946 8.4585 7.00004C8.4585 10.0606 10.9396 12.5417 14.0002 12.5417C17.0607 12.5417 19.5418 10.0606 19.5418 7.00004C19.5418 3.93946 17.0607 1.45837 14.0002 1.45837ZM10.2085 7.00004C10.2085 4.90596 11.9061 3.20837 14.0002 3.20837C16.0942 3.20837 17.7918 4.90596 17.7918 7.00004C17.7918 9.09412 16.0942 10.7917 14.0002 10.7917C11.9061 10.7917 10.2085 9.09412 10.2085 7.00004Z" fill="#42C83C"/>
<path fill-rule="evenodd" clip-rule="evenodd" d="M10.5002 14.2917C7.43958 14.2917 4.9585 16.7728 4.9585 19.8334C4.9585 22.894 7.43958 25.375 10.5002 25.375H17.5002C20.5607 25.375 23.0418 22.894 23.0418 19.8334C23.0418 16.7728 20.5607 14.2917 17.5002 14.2917H10.5002ZM6.7085 19.8334C6.7085 17.7393 8.40608 16.0417 10.5002 16.0417H17.5002C19.5942 16.0417 21.2918 17.7393 21.2918 19.8334C21.2918 21.9275 19.5942 23.625 17.5002 23.625H10.5002C8.40608 23.625 6.7085 21.9275 6.7085 19.8334Z" fill="#42C83C"/>
</svg>
