<svg width="6" height="12" viewBox="0 0 6 12" fill="none" xmlns="http://www.w3.org/2000/svg">
<path d="M5.50744 1.33846C5.81442 1.0342 5.81663 0.538683 5.51237 0.231695C5.20811 -0.075293 4.7126 -0.0775037 4.40561 0.226757L2.53284 2.08288C1.82748 2.78196 1.25099 3.35331 0.842146 3.86239C0.417003 4.39178 0.109247 4.9291 0.0270355 5.57409C-0.00901186 5.8569 -0.00901179 6.1431 0.0270354 6.42591C0.109247 7.0709 0.417003 7.60823 0.842146 8.13761C1.25099 8.64669 1.82747 9.21803 2.53283 9.9171L4.40561 11.7732C4.7126 12.0775 5.20811 12.0753 5.51237 11.7683C5.81663 11.4613 5.81442 10.9658 5.50743 10.6615L3.66782 8.83826C2.92121 8.09829 2.40907 7.58903 2.06253 7.15753C1.72591 6.73836 1.61043 6.46913 1.57969 6.22801C1.56039 6.0766 1.56039 5.9234 1.57969 5.772C1.61043 5.53087 1.72591 5.26164 2.06253 4.84248C2.40907 4.41097 2.92121 3.90171 3.66781 3.16174L5.50744 1.33846Z" fill="#DDDDDD"/>
</svg>
