<svg width="28" height="28" viewBox="0 0 28 28" fill="none" xmlns="http://www.w3.org/2000/svg">
<path d="M11.6664 19.9146C11.1832 19.9146 10.7914 20.3064 10.7914 20.7896C10.7914 21.2729 11.1832 21.6646 11.6664 21.6646H16.3331C16.8163 21.6646 17.2081 21.2729 17.2081 20.7896C17.2081 20.3064 16.8163 19.9146 16.3331 19.9146H11.6664Z" fill="#737373"/>
<path fill-rule="evenodd" clip-rule="evenodd" d="M14.2457 1.46288C14.0818 1.45687 13.9177 1.45687 13.7538 1.46288C12.6719 1.50257 11.6976 1.87048 10.6294 2.48291C9.58845 3.07973 8.39001 3.95046 6.8694 5.05526L6.78674 5.11532C5.26611 6.22011 4.06764 7.09084 3.17835 7.89645C2.26579 8.72312 1.61483 9.536 1.24275 10.5527C1.18638 10.7067 1.13568 10.8628 1.09076 11.0205C0.794166 12.0618 0.843006 13.102 1.09537 14.3072C1.3413 15.4817 1.79907 16.8905 2.37991 18.6781L2.41149 18.7753C2.9923 20.5629 3.45006 21.9718 3.94143 23.0665C4.44565 24.1898 5.01759 25.0601 5.86957 25.7282C5.99863 25.8294 6.13136 25.9258 6.26749 26.0173C7.16613 26.6211 8.17056 26.8961 9.39474 27.0285C10.5877 27.1576 12.0691 27.1576 13.9487 27.1575H14.0509C15.9304 27.1576 17.4118 27.1576 18.6048 27.0285C19.829 26.8961 20.8334 26.6211 21.732 26.0173C21.8682 25.9258 22.0009 25.8294 22.13 25.7282C22.9819 25.0601 23.5539 24.1898 24.0581 23.0665C24.5495 21.9717 25.0072 20.5629 25.5881 18.7752L25.6196 18.6781C26.2004 16.8906 26.6582 15.4816 26.9042 14.3072C27.1565 13.102 27.2054 12.0618 26.9088 11.0205C26.8638 10.8628 26.8131 10.7067 26.7568 10.5527C26.3847 9.536 25.7337 8.72312 24.8212 7.89645C23.9319 7.09083 22.7334 6.22011 21.2128 5.11531L21.1301 5.05524C19.6095 3.95045 18.4111 3.07973 17.3701 2.48291C16.3019 1.87048 15.3276 1.50257 14.2457 1.46288ZM13.818 3.21171C13.9391 3.20726 14.0604 3.20726 14.1815 3.21171C14.8762 3.23719 15.5681 3.46699 16.4997 4.0011C17.4491 4.54541 18.5718 5.35966 20.1428 6.50108C21.7139 7.6425 22.8352 8.45867 23.6463 9.1934C24.4421 9.91435 24.8745 10.5014 25.1134 11.1542C25.155 11.268 25.1925 11.3833 25.2257 11.4999C25.4161 12.1685 25.4114 12.8975 25.1913 13.9485C24.967 15.0197 24.5396 16.3391 23.9395 18.1859C23.3394 20.0328 22.9097 21.3514 22.4616 22.3499C22.0218 23.3295 21.5972 23.9221 21.0501 24.3511C20.9547 24.4258 20.8566 24.4971 20.756 24.5647C20.179 24.9524 19.4842 25.1732 18.4166 25.2887C17.3286 25.4064 15.9417 25.4075 13.9998 25.4075C12.0579 25.4075 10.6709 25.4064 9.58292 25.2887C8.51532 25.1732 7.8205 24.9524 7.24352 24.5647C7.1429 24.4971 7.04479 24.4258 6.9494 24.3511C6.40238 23.9221 5.97771 23.3295 5.53797 22.3498C5.08984 21.3514 4.66012 20.0328 4.06005 18.1859C3.45997 16.3391 3.03251 15.0197 2.80822 13.9485C2.58813 12.8975 2.58338 12.1685 2.77381 11.4999C2.80702 11.3833 2.84449 11.268 2.88615 11.1542C3.12506 10.5014 3.55741 9.91435 4.35325 9.1934C5.16431 8.45867 6.28565 7.6425 7.85668 6.50108C9.42771 5.35966 10.5504 4.54541 11.4998 4.0011C12.4314 3.46699 13.1233 3.23719 13.818 3.21171Z" fill="#737373"/>
</svg>
